<svg xmlns="http://www.w3.org/2000/svg" width="16" height="16" viewBox="0 0 16 16" fill="none">
    <path d="M7.4619 10.8087C7.4998 10.9001 7.50976 11.0006 7.49051 11.0976C7.47126 11.1947 7.42368 11.2838 7.35378 11.3537L5.35378 13.3537C5.30734 13.4002 5.2522 13.4371 5.1915 13.4623C5.1308 13.4874 5.06574 13.5004 5.00003 13.5004C4.93432 13.5004 4.86926 13.4874 4.80856 13.4623C4.74786 13.4371 4.69271 13.4002 4.64628 13.3537L2.64628 11.3537C2.57627 11.2838 2.52859 11.1947 2.50926 11.0977C2.48994 11.0006 2.49984 10.9 2.53772 10.8086C2.57559 10.7172 2.63974 10.6391 2.72204 10.5841C2.80433 10.5292 2.90108 10.4999 3.00003 10.5H4.50003V3C4.50003 2.86739 4.55271 2.74021 4.64647 2.64644C4.74024 2.55268 4.86742 2.5 5.00003 2.5C5.13264 2.5 5.25981 2.55268 5.35358 2.64644C5.44735 2.74021 5.50003 2.86739 5.50003 3V10.5H7.00003C7.09892 10.5 7.19558 10.5294 7.27779 10.5843C7.36001 10.6393 7.42408 10.7174 7.4619 10.8087ZM13.3538 4.64625L11.3538 2.64625C11.3073 2.59976 11.2522 2.56288 11.1915 2.53772C11.1308 2.51255 11.0657 2.4996 11 2.4996C10.9343 2.4996 10.8693 2.51255 10.8086 2.53772C10.7479 2.56288 10.6927 2.59976 10.6463 2.64625L8.64628 4.64625C8.57627 4.71617 8.52859 4.8053 8.50926 4.90234C8.48994 4.99939 8.49984 5.09998 8.53772 5.19139C8.57559 5.2828 8.63974 5.36092 8.72204 5.41586C8.80433 5.47079 8.90108 5.50007 9.00003 5.5H10.5V13C10.5 13.1326 10.5527 13.2598 10.6465 13.3535C10.7402 13.4473 10.8674 13.5 11 13.5C11.1326 13.5 11.2598 13.4473 11.3536 13.3535C11.4473 13.2598 11.5 13.1326 11.5 13V5.5H13C13.099 5.50007 13.1957 5.47079 13.278 5.41586C13.3603 5.36092 13.4245 5.2828 13.4623 5.19139C13.5002 5.09998 13.5101 4.99939 13.4908 4.90234C13.4715 4.8053 13.4238 4.71617 13.3538 4.64625Z" fill="black"/>
</svg>